<svg width="330" height="44" viewBox="0 0 330 44" fill="none" xmlns="http://www.w3.org/2000/svg">
<mask id="path-1-outside-1_65_309" maskUnits="userSpaceOnUse" x="-0.813965" y="-0.0639648" width="331" height="44" fill="black">
<rect fill="white" x="-0.813965" y="-0.0639648" width="331" height="44"/>
<path d="M21.522 11.624C21.9487 11.4107 22.5887 11.1974 23.442 10.984C24.338 10.728 25.234 10.6 26.13 10.6C27.7087 10.6 29.01 10.8347 30.034 11.304C31.1007 11.7734 31.7407 12.456 31.954 13.352C32.722 15.912 33.4047 18.2374 34.002 20.328C34.5994 22.4187 35.1754 24.4454 35.73 26.408C36.2847 28.3707 36.8394 30.4187 37.394 32.552H37.714C38.3114 28.968 38.8447 25.576 39.314 22.376C39.7834 19.1334 40.2314 15.9334 40.658 12.776C41.0847 9.57603 41.5114 6.2907 41.938 2.92003C43.3034 2.1947 44.7327 1.83204 46.226 1.83204C47.634 1.83204 48.8287 2.1307 49.81 2.72803C50.7914 3.32537 51.282 4.32803 51.282 5.73603C51.282 6.63203 51.1754 7.93337 50.962 9.64003C50.7487 11.304 50.4714 13.2454 50.13 15.464C49.7887 17.64 49.3834 19.9014 48.914 22.248C48.4874 24.552 48.018 26.8347 47.506 29.096C47.0367 31.3574 46.5247 33.4054 45.97 35.24C45.458 37.032 44.9887 38.4827 44.562 39.592C43.9647 40.0614 43.0474 40.488 41.81 40.872C40.5727 41.2134 39.2927 41.384 37.97 41.384C36.2634 41.384 34.7914 41.1494 33.554 40.68C32.3594 40.168 31.6127 39.4854 31.314 38.632C30.93 37.3947 30.4607 35.944 29.906 34.28C29.394 32.616 28.8394 30.7814 28.242 28.776C27.6874 26.7707 27.1327 24.7227 26.578 22.632C26.066 24.68 25.5327 26.7707 24.978 28.904C24.4234 31.0374 23.89 33.0214 23.378 34.856C22.866 36.6907 22.3967 38.2694 21.97 39.592C21.4154 40.0614 20.5834 40.488 19.474 40.872C18.3647 41.2134 17.1274 41.384 15.762 41.384C14.1407 41.384 12.6474 41.128 11.282 40.616C9.95937 40.104 9.0847 39.4427 8.65804 38.632C8.23137 37.6507 7.7407 36.1787 7.18604 34.216C6.63137 32.2107 6.03404 29.928 5.39404 27.368C4.7967 24.7654 4.19937 22.056 3.60204 19.24C3.04737 16.424 2.53537 13.6934 2.06604 11.048C1.5967 8.36003 1.25537 5.94937 1.04204 3.81603C1.55404 3.30403 2.25804 2.85603 3.15404 2.47203C4.0927 2.04537 5.1167 1.83204 6.22604 1.83204C7.63404 1.83204 8.7647 2.15203 9.61804 2.79203C10.514 3.38937 11.09 4.41337 11.346 5.86403C12.0287 9.78937 12.5834 13.16 13.01 15.976C13.4794 18.792 13.8634 21.2027 14.162 23.208C14.5034 25.2134 14.802 26.9627 15.058 28.456C15.314 29.9494 15.5914 31.3147 15.89 32.552H16.21C16.6367 30.8027 17.042 29.16 17.426 27.624C17.81 26.088 18.2154 24.552 18.642 23.016C19.0687 21.48 19.5167 19.7947 19.986 17.96C20.4554 16.1254 20.9674 14.0134 21.522 11.624ZM95.676 21.48C95.676 25.9174 94.8014 29.672 93.052 32.744C91.3027 35.7734 88.9347 38.0774 85.948 39.656C82.9614 41.2347 79.5694 42.024 75.772 42.024C72.0174 42.024 68.6254 41.2347 65.596 39.656C62.6094 38.0774 60.2627 35.7734 58.556 32.744C56.8494 29.672 55.996 25.9174 55.996 21.48C55.996 17.0427 56.8707 13.3094 58.62 10.28C60.3694 7.20803 62.7374 4.90403 65.724 3.36803C68.7107 1.78937 72.06 1.00003 75.772 1.00003C79.5267 1.00003 82.8974 1.78937 85.884 3.36803C88.8707 4.90403 91.2387 7.20803 92.988 10.28C94.78 13.3094 95.676 17.0427 95.676 21.48ZM85.692 21.48C85.692 17.3414 84.796 14.2054 83.004 12.072C81.212 9.9387 78.8014 8.87203 75.772 8.87203C72.828 8.87203 70.46 9.9387 68.668 12.072C66.876 14.2054 65.98 17.3414 65.98 21.48C65.98 25.6614 66.876 28.8187 68.668 30.952C70.46 33.0854 72.8494 34.152 75.836 34.152C78.8227 34.152 81.212 33.0854 83.004 30.952C84.796 28.8187 85.692 25.6614 85.692 21.48ZM112.393 20.392H116.617C118.75 20.392 120.478 19.9014 121.801 18.92C123.123 17.9387 123.785 16.5094 123.785 14.632C123.785 12.7547 123.145 11.3467 121.865 10.408C120.627 9.4267 118.729 8.93604 116.169 8.93604C115.443 8.93604 114.782 8.9787 114.185 9.06403C113.587 9.1067 112.99 9.1707 112.393 9.25603V20.392ZM117.513 27.816H102.793V5.54403C102.793 4.6907 103.027 4.0507 103.497 3.62403C103.966 3.1547 104.606 2.7707 105.417 2.47203C106.782 2.0027 108.403 1.66137 110.281 1.44803C112.201 1.2347 114.185 1.12803 116.233 1.12803C121.993 1.12803 126.323 2.34403 129.225 4.77604C132.126 7.16537 133.577 10.4294 133.577 14.568C133.577 17.128 132.873 19.4107 131.465 21.416C130.099 23.4214 128.201 25 125.769 26.152C123.379 27.2614 120.627 27.816 117.513 27.816ZM115.785 25.576L124.361 23.528C125.342 24.8507 126.366 26.1947 127.433 27.56C128.499 28.8827 129.502 30.1627 130.441 31.4C131.422 32.6374 132.297 33.7894 133.065 34.856C133.833 35.88 134.451 36.7547 134.921 37.48C134.537 38.76 133.854 39.7627 132.873 40.488C131.891 41.1707 130.782 41.512 129.545 41.512C128.009 41.512 126.814 41.1707 125.961 40.488C125.15 39.7627 124.361 38.824 123.593 37.672L115.785 25.576ZM102.793 24.232H112.521V40.872C112.094 40.9574 111.454 41.064 110.601 41.192C109.79 41.32 108.937 41.384 108.041 41.384C106.121 41.384 104.755 41.0427 103.945 40.36C103.177 39.6774 102.793 38.504 102.793 36.84V24.232ZM146.73 20.328L157.546 18.984C161.13 22.824 164.33 26.2374 167.146 29.224C169.962 32.2107 172.244 34.6 173.994 36.392C173.994 38.0134 173.46 39.2934 172.394 40.232C171.37 41.128 170.154 41.576 168.746 41.576C167.252 41.576 166.015 41.192 165.034 40.424C164.052 39.656 163.092 38.76 162.154 37.736L146.73 20.328ZM157.802 23.72L145.514 24.232L165.546 1.76803C167.978 1.76803 169.727 2.23737 170.794 3.17603C171.903 4.1147 172.458 5.24537 172.458 6.56804C172.458 7.5067 172.202 8.42403 171.69 9.32003C171.22 10.1734 170.452 11.112 169.386 12.136L157.802 23.72ZM141.418 13.864H151.146V40.872C150.719 41 150.079 41.1067 149.226 41.192C148.415 41.32 147.562 41.384 146.666 41.384C144.746 41.384 143.38 41.0427 142.57 40.36C141.802 39.6774 141.418 38.504 141.418 36.84V13.864ZM151.146 26.024H141.418V2.02403C141.844 1.9387 142.484 1.83203 143.338 1.70403C144.234 1.57603 145.087 1.51203 145.898 1.51203C147.732 1.51203 149.055 1.83203 149.866 2.47203C150.719 3.11203 151.146 4.3067 151.146 6.05603V26.024ZM216.239 21.48C216.239 25.9174 215.364 29.672 213.615 32.744C211.865 35.7734 209.497 38.0774 206.511 39.656C203.524 41.2347 200.132 42.024 196.335 42.024C192.58 42.024 189.188 41.2347 186.159 39.656C183.172 38.0774 180.825 35.7734 179.119 32.744C177.412 29.672 176.559 25.9174 176.559 21.48C176.559 17.0427 177.433 13.3094 179.183 10.28C180.932 7.20803 183.3 4.90403 186.287 3.36803C189.273 1.78937 192.623 1.00003 196.335 1.00003C200.089 1.00003 203.46 1.78937 206.447 3.36803C209.433 4.90403 211.801 7.20803 213.551 10.28C215.343 13.3094 216.239 17.0427 216.239 21.48ZM206.255 21.48C206.255 17.3414 205.359 14.2054 203.567 12.072C201.775 9.9387 199.364 8.87203 196.335 8.87203C193.391 8.87203 191.023 9.9387 189.231 12.072C187.439 14.2054 186.543 17.3414 186.543 21.48C186.543 25.6614 187.439 28.8187 189.231 30.952C191.023 33.0854 193.412 34.152 196.399 34.152C199.385 34.152 201.775 33.0854 203.567 30.952C205.359 28.8187 206.255 25.6614 206.255 21.48ZM239.931 42.024C236.432 42.024 233.424 41.4054 230.907 40.168C228.432 38.888 226.534 37.1174 225.211 34.856C223.888 32.5947 223.227 29.9494 223.227 26.92V22.696H232.891V26.664C232.891 29.0107 233.552 30.8454 234.875 32.168C236.198 33.4907 237.883 34.152 239.931 34.152C241.979 34.152 243.664 33.4907 244.987 32.168C246.31 30.8454 246.971 29.0107 246.971 26.664V22.696H256.699V26.92C256.699 29.9494 256.016 32.5947 254.651 34.856C253.328 37.1174 251.408 38.888 248.891 40.168C246.416 41.4054 243.43 42.024 239.931 42.024ZM232.891 24.616H223.227V2.02403C223.654 1.9387 224.294 1.83203 225.147 1.70403C226 1.57603 226.854 1.51203 227.707 1.51203C229.542 1.51203 230.864 1.83203 231.675 2.47203C232.486 3.11203 232.891 4.3067 232.891 6.05603V24.616ZM256.699 24.744H246.971V2.02403C247.398 1.9387 248.038 1.83203 248.891 1.70403C249.787 1.57603 250.64 1.51203 251.451 1.51203C253.286 1.51203 254.608 1.83203 255.419 2.47203C256.272 3.11203 256.699 4.3067 256.699 6.05603V24.744ZM274.117 9.96003L274.053 2.08803H293.765C294.021 2.5147 294.256 3.06937 294.469 3.75203C294.682 4.39203 294.789 5.09603 294.789 5.86403C294.789 7.22937 294.469 8.25337 293.829 8.93604C293.232 9.6187 292.4 9.96003 291.333 9.96003H274.117ZM283.013 2.08803L283.077 9.96003H263.365C263.109 9.53337 262.874 9.00003 262.661 8.36003C262.448 7.67737 262.341 6.9307 262.341 6.12003C262.341 4.7547 262.64 3.75203 263.237 3.11203C263.877 2.42937 264.709 2.08803 265.733 2.08803H283.013ZM273.605 8.23203H283.269V40.872C282.885 40.9574 282.266 41.064 281.413 41.192C280.56 41.32 279.685 41.384 278.789 41.384C276.912 41.384 275.568 41.0427 274.757 40.36C273.989 39.6774 273.605 38.504 273.605 36.84V8.23203ZM311.816 34.088C314.077 34.088 315.698 33.6827 316.68 32.872C317.704 32.0187 318.216 31.016 318.216 29.864C318.216 28.7974 317.81 27.944 317 27.304C316.232 26.6214 315.08 26.024 313.544 25.512L310.152 24.424C307.848 23.656 305.821 22.8027 304.072 21.864C302.322 20.9254 300.957 19.7307 299.976 18.28C298.994 16.7867 298.504 14.888 298.504 12.584C298.504 9.0427 299.848 6.2267 302.536 4.13603C305.224 2.04537 308.957 1.00003 313.736 1.00003C316.168 1.00003 318.322 1.2347 320.2 1.70403C322.12 2.17337 323.613 2.87737 324.68 3.81603C325.789 4.71203 326.344 5.82137 326.344 7.14404C326.344 8.0827 326.109 8.9147 325.64 9.64003C325.17 10.3654 324.616 10.9627 323.976 11.432C322.994 10.792 321.672 10.216 320.008 9.70403C318.386 9.19203 316.616 8.93604 314.696 8.93604C312.648 8.93604 311.09 9.27737 310.024 9.96003C309 10.6427 308.488 11.5174 308.488 12.584C308.488 13.4374 308.829 14.1414 309.512 14.696C310.237 15.208 311.282 15.6774 312.648 16.104L316.168 17.256C320.05 18.4507 323.037 20.0294 325.128 21.992C327.218 23.9547 328.264 26.6 328.264 29.928C328.264 33.512 326.877 36.4347 324.104 38.696C321.33 40.9147 317.32 42.024 312.072 42.024C309.469 42.024 307.144 41.7254 305.096 41.128C303.048 40.5734 301.426 39.784 300.232 38.76C299.037 37.6934 298.44 36.456 298.44 35.048C298.44 33.9387 298.76 33 299.4 32.232C300.04 31.464 300.765 30.8667 301.576 30.44C302.728 31.3787 304.157 32.232 305.864 33C307.613 33.7254 309.597 34.088 311.816 34.088Z"/>
</mask>
<path d="M21.522 11.624L21.0748 10.7296L20.6543 10.9399L20.5479 11.3979L21.522 11.624ZM23.442 10.984L23.6846 11.9542L23.7007 11.9501L23.7168 11.9456L23.442 10.984ZM30.034 11.304L29.6174 12.2131L29.6243 12.2163L29.6313 12.2193L30.034 11.304ZM31.954 13.352L30.9812 13.5837L30.9879 13.6117L30.9962 13.6394L31.954 13.352ZM34.002 20.328L34.9636 20.0533V20.0533L34.002 20.328ZM35.73 26.408L36.6923 26.1361V26.1361L35.73 26.408ZM37.394 32.552L36.4262 32.8037L36.6208 33.552H37.394V32.552ZM37.714 32.552V33.552H38.5612L38.7004 32.7164L37.714 32.552ZM39.314 22.376L40.3035 22.5211L40.3037 22.5193L39.314 22.376ZM40.658 12.776L41.649 12.91L41.6493 12.9082L40.658 12.776ZM41.938 2.92003L41.4689 2.03692L41.0111 2.28014L40.946 2.79445L41.938 2.92003ZM50.962 9.64003L51.9539 9.7672L51.9543 9.76407L50.962 9.64003ZM50.13 15.464L51.118 15.619L51.1184 15.6161L50.13 15.464ZM48.914 22.248L47.9335 22.0519L47.9321 22.0589L47.9308 22.0659L48.914 22.248ZM47.506 29.096L46.5307 28.8752L46.5287 28.884L46.5269 28.8928L47.506 29.096ZM45.97 35.24L45.0128 34.9506L45.0106 34.958L45.0085 34.9653L45.97 35.24ZM44.562 39.592L45.1799 40.3784L45.3965 40.2081L45.4954 39.951L44.562 39.592ZM41.81 40.872L42.076 41.836L42.0913 41.8318L42.1064 41.8271L41.81 40.872ZM33.554 40.68L33.1601 41.5992L33.1796 41.6075L33.1994 41.615L33.554 40.68ZM31.314 38.632L30.359 38.9284L30.3643 38.9455L30.3702 38.9624L31.314 38.632ZM29.906 34.28L28.9503 34.5741L28.9537 34.5852L28.9574 34.5963L29.906 34.28ZM28.242 28.776L27.2782 29.0426L27.2808 29.0521L27.2837 29.0615L28.242 28.776ZM26.578 22.632L27.5446 22.3756L25.6079 22.3895L26.578 22.632ZM24.978 28.904L25.9459 29.1557V29.1557L24.978 28.904ZM21.97 39.592L22.616 40.3554L22.834 40.1709L22.9217 39.899L21.97 39.592ZM19.474 40.872L19.7681 41.8278L19.7847 41.8227L19.8011 41.817L19.474 40.872ZM11.282 40.616L10.921 41.5487L10.9309 41.5524L11.282 40.616ZM8.65804 38.632L7.74096 39.0308L7.75579 39.0649L7.77312 39.0978L8.65804 38.632ZM7.18604 34.216L6.22221 34.4826L6.22373 34.488L7.18604 34.216ZM5.39404 27.368L4.41938 27.5917L4.42154 27.6012L4.42389 27.6106L5.39404 27.368ZM3.60204 19.24L2.62089 19.4333L2.62229 19.4404L2.6238 19.4475L3.60204 19.24ZM2.06604 11.048L1.08093 11.22L1.08141 11.2227L2.06604 11.048ZM1.04204 3.81603L0.334929 3.10892L-0.000154793 3.44401L0.046998 3.91554L1.04204 3.81603ZM3.15404 2.47203L3.54795 3.39118L3.55794 3.3869L3.56784 3.3824L3.15404 2.47203ZM9.61804 2.79203L9.01804 3.59204L9.04024 3.60869L9.06334 3.62408L9.61804 2.79203ZM11.346 5.86403L12.3313 5.69269L12.3308 5.69025L11.346 5.86403ZM13.01 15.976L12.0213 16.1258L12.0224 16.1331L12.0236 16.1404L13.01 15.976ZM14.162 23.208L13.1729 23.3553L13.1745 23.3656L13.1762 23.3758L14.162 23.208ZM15.058 28.456L16.0437 28.2871L15.058 28.456ZM15.89 32.552L14.918 32.7867L15.1027 33.552H15.89V32.552ZM16.21 32.552V33.552H16.9954L17.1816 32.789L16.21 32.552ZM17.426 27.624L18.3962 27.8666V27.8666L17.426 27.624ZM18.642 23.016L19.6056 23.2837V23.2837L18.642 23.016ZM19.986 17.96L19.0172 17.7122V17.7122L19.986 17.96ZM21.522 11.624L21.9692 12.5185C22.2974 12.3544 22.8534 12.162 23.6846 11.9542L23.442 10.984L23.1995 10.0139C22.324 10.2328 21.6 10.467 21.0748 10.7296L21.522 11.624ZM23.442 10.984L23.7168 11.9456C24.527 11.7141 25.3306 11.6 26.13 11.6V10.6V9.60003C25.1375 9.60003 24.1491 9.74201 23.1673 10.0225L23.442 10.984ZM26.13 10.6V11.6C27.6188 11.6 28.7656 11.8227 29.6174 12.2131L30.034 11.304L30.4507 10.395C29.2545 9.84672 27.7986 9.60003 26.13 9.60003V10.6ZM30.034 11.304L29.6313 12.2193C30.4952 12.5995 30.8593 13.0715 30.9812 13.5837L31.954 13.352L32.9268 13.1204C32.6221 11.8406 31.7062 10.9473 30.4368 10.3887L30.034 11.304ZM31.954 13.352L30.9962 13.6394C31.7632 16.1961 32.4446 18.5171 33.0405 20.6028L34.002 20.328L34.9636 20.0533C34.3648 17.9576 33.6809 15.628 32.9119 13.0647L31.954 13.352ZM34.002 20.328L33.0405 20.6028C33.6376 22.6926 34.2133 24.7183 34.7677 26.68L35.73 26.408L36.6923 26.1361C36.1374 24.1724 35.5611 22.1448 34.9636 20.0533L34.002 20.328ZM35.73 26.408L34.7677 26.68C35.3203 28.6354 35.8732 30.6766 36.4262 32.8037L37.394 32.552L38.3619 32.3004C37.8056 30.1608 37.2491 28.106 36.6923 26.1361L35.73 26.408ZM37.394 32.552V33.552H37.714V32.552V31.552H37.394V32.552ZM37.714 32.552L38.7004 32.7164C39.2987 29.1268 39.8331 25.7283 40.3035 22.5211L39.314 22.376L38.3246 22.2309C37.8563 25.4238 37.324 28.8093 36.7276 32.3876L37.714 32.552ZM39.314 22.376L40.3037 22.5193C40.7735 19.2736 41.2219 16.0705 41.649 12.91L40.658 12.776L39.667 12.6421C39.2408 15.7963 38.7932 18.9931 38.3243 22.2328L39.314 22.376ZM40.658 12.776L41.6493 12.9082C42.0762 9.70589 42.5032 6.41836 42.9301 3.04561L41.938 2.92003L40.946 2.79445C40.5196 6.16304 40.0932 9.44617 39.6668 12.6439L40.658 12.776ZM41.938 2.92003L42.4072 3.80315C43.6333 3.15176 44.9022 2.83204 46.226 2.83204V1.83204V0.832035C44.5632 0.832035 42.9734 1.23764 41.4689 2.03692L41.938 2.92003ZM46.226 1.83204V2.83204C47.492 2.83204 48.4973 3.09968 49.2901 3.58223L49.81 2.72803L50.33 1.87384C49.1601 1.16172 47.7761 0.832035 46.226 0.832035V1.83204ZM49.81 2.72803L49.2901 3.58223C49.9028 3.95517 50.282 4.58564 50.282 5.73603H51.282H52.282C52.282 4.07043 51.68 2.69556 50.33 1.87384L49.81 2.72803ZM51.282 5.73603H50.282C50.282 6.5685 50.1817 7.82039 49.9698 9.516L50.962 9.64003L51.9543 9.76407C52.169 8.04634 52.282 6.69556 52.282 5.73603H51.282ZM50.962 9.64003L49.9702 9.51287C49.7582 11.1663 49.4821 13.099 49.1417 15.312L50.13 15.464L51.1184 15.6161C51.4606 13.3917 51.7392 11.4417 51.9539 9.7672L50.962 9.64003ZM50.13 15.464L49.1421 15.3091C48.8031 17.4702 48.4003 19.7178 47.9335 22.0519L48.914 22.248L49.8946 22.4441C50.3665 20.085 50.7743 17.8099 51.118 15.619L50.13 15.464ZM48.914 22.248L47.9308 22.0659C47.5065 24.3571 47.0398 26.6269 46.5307 28.8752L47.506 29.096L48.4814 29.3169C48.9963 27.0425 49.4683 24.7469 49.8973 22.4301L48.914 22.248ZM47.506 29.096L46.5269 28.8928C46.0624 31.1308 45.5574 33.1494 45.0128 34.9506L45.97 35.24L46.9272 35.5294C47.492 33.6613 48.011 31.584 48.4852 29.2993L47.506 29.096ZM45.97 35.24L45.0085 34.9653C44.5006 36.7428 44.0405 38.1623 43.6287 39.2331L44.562 39.592L45.4954 39.951C45.9369 38.8031 46.4154 37.3212 46.9316 35.5148L45.97 35.24ZM44.562 39.592L43.9442 38.8057C43.4874 39.1646 42.7048 39.5473 41.5136 39.917L41.81 40.872L42.1064 41.8271C43.3899 41.4288 44.442 40.9581 45.1799 40.3784L44.562 39.592ZM41.81 40.872L41.5441 39.908C40.396 40.2248 39.2056 40.384 37.97 40.384V41.384V42.384C39.3798 42.384 40.7494 42.202 42.076 41.836L41.81 40.872ZM37.97 41.384V40.384C36.3511 40.384 35.0052 40.161 33.9087 39.745L33.554 40.68L33.1994 41.615C34.5775 42.1378 36.1756 42.384 37.97 42.384V41.384ZM33.554 40.68L33.948 39.7609C32.8961 39.3101 32.4294 38.7917 32.2579 38.3017L31.314 38.632L30.3702 38.9624C30.796 40.179 31.8226 41.026 33.1601 41.5992L33.554 40.68ZM31.314 38.632L32.2691 38.3356C31.8825 37.0898 31.4109 35.6323 30.8547 33.9638L29.906 34.28L28.9574 34.5963C29.5105 36.2558 29.9776 37.6996 30.359 38.9284L31.314 38.632ZM29.906 34.28L30.8618 33.986C30.3509 32.3253 29.7971 30.4936 29.2004 28.4906L28.242 28.776L27.2837 29.0615C27.8817 31.0692 28.4372 32.9068 28.9503 34.5741L29.906 34.28ZM28.242 28.776L29.2058 28.5094C28.6522 26.5076 28.0984 24.463 27.5446 22.3756L26.578 22.632L25.6115 22.8885C26.167 24.9824 26.7226 27.0338 27.2782 29.0426L28.242 28.776ZM26.578 22.632L25.6079 22.3895C25.0967 24.4343 24.5641 26.522 24.0102 28.6524L24.978 28.904L25.9459 29.1557C26.5013 27.0194 27.0354 24.9257 27.5482 22.8746L26.578 22.632ZM24.978 28.904L24.0102 28.6524C23.4568 30.7809 22.925 32.7591 22.4148 34.5872L23.378 34.856L24.3412 35.1248C24.855 33.2837 25.3899 31.2939 25.9459 29.1557L24.978 28.904ZM23.378 34.856L22.4148 34.5872C21.9052 36.4134 21.4397 37.9787 21.0183 39.285L21.97 39.592L22.9217 39.899C23.3537 38.5601 23.8269 36.968 24.3412 35.1248L23.378 34.856ZM21.97 39.592L21.3241 38.8286C20.9037 39.1844 20.2026 39.5616 19.1469 39.927L19.474 40.872L19.8011 41.817C20.9642 41.4144 21.927 40.9384 22.616 40.3554L21.97 39.592ZM19.474 40.872L19.1799 39.9163C18.181 40.2236 17.0448 40.384 15.762 40.384V41.384V42.384C17.21 42.384 18.5484 42.2031 19.7681 41.8278L19.474 40.872ZM15.762 41.384V40.384C14.2473 40.384 12.8743 40.1452 11.6332 39.6797L11.282 40.616L10.9309 41.5524C12.4204 42.1109 14.0342 42.384 15.762 42.384V41.384ZM11.282 40.616L11.643 39.6835C10.4275 39.2129 9.80954 38.6728 9.54295 38.1663L8.65804 38.632L7.77312 39.0978C8.35986 40.2126 9.49122 40.9951 10.921 41.5486L11.282 40.616ZM8.65804 38.632L9.57511 38.2333C9.17581 37.3149 8.69963 35.8948 8.14834 33.9441L7.18604 34.216L6.22373 34.488C6.78178 36.4626 7.28693 37.9865 7.74096 39.0308L8.65804 38.632ZM7.18604 34.216L8.14985 33.9494C7.59788 31.9539 7.00267 29.6795 6.36418 27.1255L5.39404 27.368L4.42389 27.6106C5.0654 30.1766 5.66486 32.4675 6.22222 34.4826L7.18604 34.216ZM5.39404 27.368L6.3687 27.1443C5.77269 24.5475 5.17654 21.8435 4.58027 19.0325L3.60204 19.24L2.6238 19.4475C3.22219 22.2685 3.82071 24.9833 4.41938 27.5917L5.39404 27.368ZM3.60204 19.24L4.58318 19.0468C4.02965 16.2365 3.51882 13.5121 3.05066 10.8733L2.06604 11.048L1.08141 11.2227C1.55192 13.8747 2.06509 16.6115 2.62089 19.4333L3.60204 19.24ZM2.06604 11.048L3.05113 10.876C2.58493 8.20595 2.24743 5.8201 2.03707 3.71653L1.04204 3.81603L0.046998 3.91554C0.263308 6.07863 0.608477 8.51412 1.08094 11.22L2.06604 11.048ZM1.04204 3.81603L1.74914 4.52314C2.14592 4.12637 2.73081 3.74138 3.54795 3.39118L3.15404 2.47203L2.76012 1.55289C1.78526 1.97069 0.962154 2.4817 0.334929 3.10892L1.04204 3.81603ZM3.15404 2.47203L3.56784 3.3824C4.36689 3.01919 5.24845 2.83204 6.22604 2.83204V1.83204V0.832035C4.98495 0.832035 3.81851 1.07154 2.74023 1.56167L3.15404 2.47203ZM6.22604 1.83204V2.83204C7.48667 2.83204 8.38588 3.11792 9.01804 3.59204L9.61804 2.79203L10.218 1.99203C9.14353 1.18615 7.78141 0.832035 6.22604 0.832035V1.83204ZM9.61804 2.79203L9.06334 3.62408C9.65832 4.02074 10.1347 4.75408 10.3613 6.03782L11.346 5.86403L12.3308 5.69025C12.0454 4.07266 11.3697 2.75799 10.1727 1.95998L9.61804 2.79203ZM11.346 5.86403L10.3608 6.03537C11.0427 9.95612 11.5961 13.3192 12.0213 16.1258L13.01 15.976L13.9988 15.8262C13.5707 13.0008 13.0147 9.62261 12.3312 5.69269L11.346 5.86403ZM13.01 15.976L12.0236 16.1404C12.4924 18.9528 12.8754 21.3575 13.1729 23.3553L14.162 23.208L15.1511 23.0607C14.8513 21.0479 14.4664 18.6312 13.9964 15.8116L13.01 15.976ZM14.162 23.208L13.1762 23.3758C13.5176 25.3814 13.8163 27.1312 14.0724 28.625L15.058 28.456L16.0437 28.2871C15.7877 26.7942 15.4891 25.0453 15.1479 23.0402L14.162 23.208ZM15.058 28.456L14.0724 28.625C14.3315 30.1364 14.6132 31.524 14.918 32.7867L15.89 32.552L16.8621 32.3174C16.5696 31.1054 16.2966 29.7624 16.0437 28.2871L15.058 28.456ZM15.89 32.552V33.552H16.21V32.552V31.552H15.89V32.552ZM16.21 32.552L17.1816 32.789C17.6078 31.0413 18.0127 29.4005 18.3962 27.8666L17.426 27.624L16.4559 27.3815C16.0714 28.9196 15.6656 30.5641 15.2385 32.3151L16.21 32.552ZM17.426 27.624L18.3962 27.8666C18.7781 26.339 19.1812 24.8114 19.6056 23.2837L18.642 23.016L17.6785 22.7484C17.2495 24.2927 16.842 25.837 16.4559 27.3815L17.426 27.624ZM18.642 23.016L19.6056 23.2837C20.0344 21.74 20.4841 20.048 20.9548 18.2079L19.986 17.96L19.0172 17.7122C18.5493 19.5414 18.1031 21.2201 17.6785 22.7484L18.642 23.016ZM19.986 17.96L20.9548 18.2079C21.4265 16.3643 21.9402 14.2448 22.4961 11.8502L21.522 11.624L20.5479 11.3979C19.9945 13.782 19.4843 15.8865 19.0172 17.7122L19.986 17.96ZM93.052 32.744L93.918 33.2441L93.921 33.2389L93.052 32.744ZM65.596 39.656L65.1287 40.5401L65.1339 40.5428L65.596 39.656ZM58.556 32.744L57.6819 33.2297L57.6848 33.2349L58.556 32.744ZM58.62 10.28L59.486 10.7801L59.489 10.7749L58.62 10.28ZM65.724 3.36803L66.1814 4.25738L66.1913 4.25213L65.724 3.36803ZM85.884 3.36803L85.4167 4.25219L85.4267 4.25732L85.884 3.36803ZM92.988 10.28L92.119 10.7749L92.1231 10.7821L92.1273 10.7892L92.988 10.28ZM68.668 30.952L67.9023 31.5952V31.5952L68.668 30.952ZM83.004 30.952L83.7697 31.5952V31.5952L83.004 30.952ZM95.676 21.48H94.676C94.676 25.7875 93.8272 29.3618 92.1831 32.2492L93.052 32.744L93.921 33.2389C95.7755 29.9822 96.676 26.0472 96.676 21.48H95.676ZM93.052 32.744L92.1861 32.244C90.5273 35.1164 88.2949 37.2844 85.4807 38.7719L85.948 39.656L86.4153 40.5401C89.5745 38.8703 92.0781 36.4303 93.918 33.2441L93.052 32.744ZM85.948 39.656L85.4807 38.7719C82.6551 40.2655 79.427 41.024 75.772 41.024V42.024V43.024C79.7118 43.024 83.2676 42.2039 86.4153 40.5401L85.948 39.656ZM75.772 42.024V41.024C72.162 41.024 68.9311 40.2664 66.0582 38.7692L65.596 39.656L65.1339 40.5428C68.3197 42.203 71.8727 43.024 75.772 43.024V42.024ZM65.596 39.656L66.0633 38.7719C63.2514 37.2856 61.0427 35.1206 59.4273 32.2532L58.556 32.744L57.6848 33.2349C59.4827 36.4262 61.9673 38.8691 65.1287 40.5401L65.596 39.656ZM58.556 32.744L59.4302 32.2584C57.825 29.3691 56.996 25.7912 56.996 21.48H55.996H54.996C54.996 26.0435 55.8737 29.975 57.6819 33.2297L58.556 32.744ZM55.996 21.48H56.996C56.996 17.1719 57.8451 13.6217 59.486 10.7801L58.62 10.28L57.7541 9.77996C55.8963 12.997 54.996 16.9135 54.996 21.48H55.996ZM58.62 10.28L59.489 10.7749C61.1476 7.86218 63.3766 5.69978 66.1814 4.25732L65.724 3.36803L65.2667 2.47875C62.0981 4.10829 59.5911 6.55389 57.751 9.78519L58.62 10.28ZM65.724 3.36803L66.1913 4.25213C69.0202 2.7569 72.2065 2.00003 75.772 2.00003V1.00003V3.43323e-05C71.9136 3.43323e-05 68.4012 0.821836 65.2567 2.48394L65.724 3.36803ZM75.772 1.00003V2.00003C79.3823 2.00003 82.5895 2.75776 85.4167 4.25213L85.884 3.36803L86.3513 2.48394C83.2052 0.820974 79.6711 3.43323e-05 75.772 3.43323e-05V1.00003ZM85.884 3.36803L85.4267 4.25732C88.2315 5.69978 90.4604 7.86218 92.119 10.7749L92.988 10.28L93.857 9.78519C92.017 6.55389 89.5099 4.10829 86.3414 2.47875L85.884 3.36803ZM92.988 10.28L92.1273 10.7892C93.8072 13.629 94.676 17.1757 94.676 21.48H95.676H96.676C96.676 16.9097 95.7528 12.9898 93.8487 9.7709L92.988 10.28ZM85.692 21.48H86.692C86.692 17.2166 85.7715 13.8119 83.7697 11.4288L83.004 12.072L82.2383 12.7152C83.8205 14.5988 84.692 17.4661 84.692 21.48H85.692ZM83.004 12.072L83.7697 11.4288C81.7697 9.04782 79.0675 7.87203 75.772 7.87203V8.87203V9.87203C78.5352 9.87203 80.6544 10.8296 82.2383 12.7152L83.004 12.072ZM75.772 8.87203V7.87203C72.5518 7.87203 69.8963 9.05505 67.9023 11.4288L68.668 12.072L69.4337 12.7152C71.0238 10.8223 73.1043 9.87203 75.772 9.87203V8.87203ZM68.668 12.072L67.9023 11.4288C65.9005 13.8119 64.98 17.2166 64.98 21.48H65.98H66.98C66.98 17.4661 67.8515 14.5988 69.4337 12.7152L68.668 12.072ZM65.98 21.48H64.98C64.98 25.7831 65.8992 29.2106 67.9023 31.5952L68.668 30.952L69.4337 30.3088C67.8528 28.4268 66.98 25.5396 66.98 21.48H65.98ZM68.668 30.952L67.9023 31.5952C69.8994 33.9727 72.5782 35.152 75.836 35.152V34.152V33.152C73.1206 33.152 71.0207 32.1981 69.4337 30.3088L68.668 30.952ZM75.836 34.152V35.152C79.0939 35.152 81.7727 33.9727 83.7697 31.5952L83.004 30.952L82.2383 30.3088C80.6514 32.1981 78.5515 33.152 75.836 33.152V34.152ZM83.004 30.952L83.7697 31.5952C85.7728 29.2106 86.692 25.7831 86.692 21.48H85.692H84.692C84.692 25.5396 83.8192 28.4268 82.2383 30.3088L83.004 30.952ZM112.393 20.392H111.393V21.392H112.393V20.392ZM121.801 18.92L122.396 19.7231V19.7231L121.801 18.92ZM121.865 10.408L121.243 11.1915L121.258 11.2033L121.273 11.2144L121.865 10.408ZM114.185 9.06403L114.256 10.0615L114.291 10.059L114.326 10.054L114.185 9.06403ZM112.393 9.25603L112.251 8.26608L111.393 8.38874V9.25603H112.393ZM102.793 27.816H101.793V28.816H102.793V27.816ZM103.497 3.62403L104.169 4.36398L104.187 4.34797L104.204 4.33114L103.497 3.62403ZM105.417 2.47203L105.091 1.52635L105.081 1.52991L105.071 1.53369L105.417 2.47203ZM110.281 1.44803L110.17 0.454145L110.168 0.454428L110.281 1.44803ZM129.225 4.77604L128.582 5.54243L128.589 5.54797L129.225 4.77604ZM131.465 21.416L130.646 20.8414L130.642 20.8473L130.638 20.8532L131.465 21.416ZM125.769 26.152L126.19 27.0591L126.197 27.0558L125.769 26.152ZM115.785 25.576L115.552 24.6034L114.178 24.9315L114.944 26.1184L115.785 25.576ZM124.361 23.528L125.164 22.9322L124.77 22.4021L124.128 22.5554L124.361 23.528ZM127.433 27.56L126.645 28.1757L126.649 28.1818L126.654 28.1878L127.433 27.56ZM130.441 31.4L129.644 32.0044L129.65 32.013L129.657 32.0214L130.441 31.4ZM133.065 34.856L132.253 35.4403L132.259 35.4482L132.265 35.456L133.065 34.856ZM134.921 37.48L135.878 37.7674L136.011 37.3248L135.76 36.9368L134.921 37.48ZM132.873 40.488L133.444 41.3089L133.455 41.3007L133.467 41.2922L132.873 40.488ZM125.961 40.488L125.294 41.2333L125.314 41.2517L125.336 41.2689L125.961 40.488ZM123.593 37.672L122.752 38.2144L122.756 38.2206L122.76 38.2267L123.593 37.672ZM102.793 24.232V23.232H101.793V24.232H102.793ZM112.521 24.232H113.521V23.232H112.521V24.232ZM112.521 40.872L112.717 41.8526L113.521 41.6918V40.872H112.521ZM110.601 41.192L110.452 40.2031L110.445 40.2043L110.601 41.192ZM103.945 40.36L103.28 41.1074L103.29 41.1163L103.3 41.1249L103.945 40.36ZM112.393 20.392V21.392H116.617V20.392V19.392H112.393V20.392ZM116.617 20.392V21.392C118.901 21.392 120.857 20.8656 122.396 19.7231L121.801 18.92L121.205 18.1169C120.099 18.9371 118.599 19.392 116.617 19.392V20.392ZM121.801 18.92L122.396 19.7231C124.011 18.5249 124.785 16.7753 124.785 14.632H123.785H122.785C122.785 16.2435 122.235 17.3525 121.205 18.1169L121.801 18.92ZM123.785 14.632H124.785C124.785 12.5022 124.042 10.7646 122.456 9.60163L121.865 10.408L121.273 11.2144C122.247 11.9288 122.785 13.0072 122.785 14.632H123.785ZM121.865 10.408L122.486 9.62453C120.992 8.43935 118.824 7.93604 116.169 7.93604V8.93604V9.93604C118.633 9.93604 120.263 10.414 121.243 11.1915L121.865 10.408ZM116.169 8.93604V7.93604C115.405 7.93604 114.696 7.98088 114.043 8.07408L114.185 9.06403L114.326 10.054C114.868 9.97652 115.481 9.93604 116.169 9.93604V8.93604ZM114.185 9.06403L114.113 8.06657C113.492 8.11093 112.872 8.17745 112.251 8.26608L112.393 9.25603L112.534 10.246C113.108 10.164 113.682 10.1025 114.256 10.0615L114.185 9.06403ZM112.393 9.25603H111.393V20.392H112.393H113.393V9.25603H112.393ZM117.513 27.816V26.816H102.793V27.816V28.816H117.513V27.816ZM102.793 27.816H103.793V5.54403H102.793H101.793V27.816H102.793ZM102.793 5.54403H103.793C103.793 4.87071 103.973 4.54206 104.169 4.36398L103.497 3.62403L102.824 2.88409C102.081 3.55934 101.793 4.51069 101.793 5.54403H102.793ZM103.497 3.62403L104.204 4.33114C104.545 3.99008 105.048 3.67349 105.762 3.41038L105.417 2.47203L105.071 1.53369C104.164 1.86791 103.387 2.31932 102.789 2.91693L103.497 3.62403ZM105.417 2.47203L105.742 3.41772C107.021 2.97798 108.568 2.64912 110.393 2.44164L110.281 1.44803L110.168 0.454428C108.239 0.673609 106.543 1.02742 105.091 1.52635L105.417 2.47203ZM110.281 1.44803L110.391 2.44192C112.272 2.23289 114.219 2.12803 116.233 2.12803V1.12803V0.128033C114.15 0.128033 112.129 0.236506 110.17 0.454149L110.281 1.44803ZM116.233 1.12803V2.12803C121.875 2.12803 125.934 3.32262 128.582 5.54241L129.225 4.77604L129.867 4.00966C126.712 1.36545 122.11 0.128033 116.233 0.128033V1.12803ZM129.225 4.77604L128.589 5.54797C131.234 7.72657 132.577 10.6939 132.577 14.568H133.577H134.577C134.577 10.1648 133.017 6.60417 129.86 4.0041L129.225 4.77604ZM133.577 14.568H132.577C132.577 16.9322 131.93 19.0122 130.646 20.8414L131.465 21.416L132.283 21.9907C133.815 19.8092 134.577 17.3239 134.577 14.568H133.577ZM131.465 21.416L130.638 20.8532C129.383 22.6958 127.63 24.1639 125.34 25.2483L125.769 26.152L126.197 27.0558C128.771 25.8361 130.815 24.1469 132.291 21.9788L131.465 21.416ZM125.769 26.152L125.347 25.245C123.112 26.2829 120.508 26.816 117.513 26.816V27.816V28.816C120.746 28.816 123.646 28.2398 126.19 27.059L125.769 26.152ZM115.785 25.576L116.017 26.5487L124.593 24.5007L124.361 23.528L124.128 22.5554L115.552 24.6034L115.785 25.576ZM124.361 23.528L123.557 24.1239C124.544 25.4535 125.573 26.8041 126.645 28.1757L127.433 27.56L128.221 26.9444C127.159 25.5853 126.14 24.2479 125.164 22.9322L124.361 23.528ZM127.433 27.56L126.654 28.1878C127.715 29.5035 128.712 30.7757 129.644 32.0044L130.441 31.4L131.237 30.7957C130.292 29.5497 129.283 28.2619 128.211 26.9323L127.433 27.56ZM130.441 31.4L129.657 32.0214C130.631 33.2489 131.496 34.3885 132.253 35.4403L133.065 34.856L133.876 34.2717C133.097 33.1903 132.213 32.0258 131.224 30.7786L130.441 31.4ZM133.065 34.856L132.265 35.456C133.025 36.4694 133.629 37.3241 134.081 38.0233L134.921 37.48L135.76 36.9368C135.274 36.1853 134.64 35.2906 133.865 34.256L133.065 34.856ZM134.921 37.48L133.963 37.1927C133.635 38.2865 133.069 39.0993 132.278 39.6839L132.873 40.488L133.467 41.2922C134.639 40.4261 135.438 39.2336 135.878 37.7674L134.921 37.48ZM132.873 40.488L132.301 39.6671C131.494 40.2289 130.585 40.512 129.545 40.512V41.512V42.512C130.978 42.512 132.289 42.1125 133.444 41.3089L132.873 40.488ZM129.545 41.512V40.512C128.145 40.512 127.202 40.2003 126.585 39.7072L125.961 40.488L125.336 41.2689C126.426 42.1411 127.872 42.512 129.545 42.512V41.512ZM125.961 40.488L126.627 39.7428C125.894 39.0866 125.158 38.2172 124.425 37.1173L123.593 37.672L122.76 38.2267C123.563 39.4309 124.406 40.4388 125.294 41.2333L125.961 40.488ZM123.593 37.672L124.433 37.1297L116.625 25.0337L115.785 25.576L114.944 26.1184L122.752 38.2144L123.593 37.672ZM102.793 24.232V25.232H112.521V24.232V23.232H102.793V24.232ZM112.521 24.232H111.521V40.872H112.521H113.521V24.232H112.521ZM112.521 40.872L112.324 39.8915C111.922 39.9719 111.302 40.0757 110.452 40.2031L110.601 41.192L110.749 42.181C111.606 42.0524 112.265 41.9429 112.717 41.8526L112.521 40.872ZM110.601 41.192L110.445 40.2043C109.69 40.3234 108.889 40.384 108.041 40.384V41.384V42.384C108.984 42.384 109.89 42.3166 110.757 42.1798L110.601 41.192ZM108.041 41.384V40.384C106.186 40.384 105.122 40.044 104.589 39.5951L103.945 40.36L103.3 41.1249C104.389 42.0414 106.055 42.384 108.041 42.384V41.384ZM103.945 40.36L104.609 39.6126C104.156 39.2102 103.793 38.3909 103.793 36.84H102.793H101.793C101.793 38.6171 102.197 40.1446 103.28 41.1074L103.945 40.36ZM102.793 36.84H103.793V24.232H102.793H101.793V36.84H102.793ZM146.73 20.328L146.606 19.3357L144.722 19.5698L145.981 20.9912L146.73 20.328ZM157.546 18.984L158.277 18.3017L157.928 17.9288L157.422 17.9917L157.546 18.984ZM173.994 36.392H174.994V35.9849L174.709 35.6935L173.994 36.392ZM172.394 40.232L173.052 40.9846L173.054 40.9827L172.394 40.232ZM165.034 40.424L165.65 39.6365V39.6365L165.034 40.424ZM162.154 37.736L161.405 38.3992L161.411 38.4055L161.416 38.4118L162.154 37.736ZM157.802 23.72L157.843 24.7192L158.233 24.7029L158.509 24.4271L157.802 23.72ZM145.514 24.232L144.767 23.5665L143.195 25.3295L145.555 25.2312L145.514 24.232ZM165.546 1.76803V0.768032H165.097L164.799 1.10248L165.546 1.76803ZM170.794 3.17603L170.133 3.92675L170.14 3.93316L170.148 3.93942L170.794 3.17603ZM171.69 9.32003L170.821 8.82389L170.817 8.83097L170.813 8.83812L171.69 9.32003ZM169.386 12.136L168.693 11.4146L168.686 11.4217L168.678 11.4289L169.386 12.136ZM141.418 13.864V12.864H140.418V13.864H141.418ZM151.146 13.864H152.146V12.864H151.146V13.864ZM151.146 40.872L151.433 41.8299L152.146 41.6161V40.872H151.146ZM149.226 41.192L149.126 40.197L149.098 40.1998L149.07 40.2043L149.226 41.192ZM142.57 40.36L141.905 41.1074L141.915 41.1163L141.925 41.1249L142.57 40.36ZM151.146 26.024V27.024H152.146V26.024H151.146ZM141.418 26.024H140.418V27.024H141.418V26.024ZM141.418 2.02403L141.221 1.04345L140.418 1.20423V2.02403H141.418ZM143.338 1.70403L143.196 0.71406L143.189 0.715097L143.338 1.70403ZM149.866 2.47203L149.246 3.25692L149.256 3.2646L149.266 3.27204L149.866 2.47203ZM146.73 20.328L146.853 21.3204L157.669 19.9764L157.546 18.984L157.422 17.9917L146.606 19.3357L146.73 20.328ZM157.546 18.984L156.814 19.6664C160.399 23.5073 163.601 26.9219 166.418 29.91L167.146 29.224L167.873 28.538C165.059 25.5529 161.86 22.1408 158.277 18.3017L157.546 18.984ZM167.146 29.224L166.418 29.91C169.236 32.8986 171.523 35.2927 173.278 37.0906L173.994 36.392L174.709 35.6935C172.966 33.9074 170.687 31.5228 167.873 28.538L167.146 29.224ZM173.994 36.392H172.994C172.994 37.771 172.552 38.7603 171.733 39.4813L172.394 40.232L173.054 40.9827C174.368 39.8264 174.994 38.2557 174.994 36.392H173.994ZM172.394 40.232L171.735 39.4795C170.9 40.21 169.921 40.576 168.746 40.576V41.576V42.576C170.387 42.576 171.839 42.0461 173.052 40.9846L172.394 40.232ZM168.746 41.576V40.576C167.43 40.576 166.422 40.241 165.65 39.6365L165.034 40.424L164.417 41.2115C165.607 42.143 167.075 42.576 168.746 42.576V41.576ZM165.034 40.424L165.65 39.6365C164.716 38.906 163.796 38.0483 162.891 37.0603L162.154 37.736L161.416 38.4118C162.388 39.4717 163.388 40.4061 164.417 41.2115L165.034 40.424ZM162.154 37.736L162.902 37.0729L147.478 19.6649L146.73 20.328L145.981 20.9912L161.405 38.3992L162.154 37.736ZM157.802 23.72L157.76 22.7209L145.472 23.2329L145.514 24.232L145.555 25.2312L157.843 24.7192L157.802 23.72ZM145.514 24.232L146.26 24.8976L166.292 2.43358L165.546 1.76803L164.799 1.10248L144.767 23.5665L145.514 24.232ZM165.546 1.76803V2.76803C167.893 2.76803 169.34 3.22938 170.133 3.92675L170.794 3.17603L171.454 2.42532C170.113 1.24536 168.062 0.768032 165.546 0.768032V1.76803ZM170.794 3.17603L170.148 3.93942C171.057 4.70927 171.458 5.57081 171.458 6.56804H172.458H173.458C173.458 4.91993 172.748 3.52013 171.439 2.41265L170.794 3.17603ZM172.458 6.56804H171.458C171.458 7.31574 171.256 8.06358 170.821 8.82389L171.69 9.32003L172.558 9.81617C173.147 8.78449 173.458 7.69766 173.458 6.56804H172.458ZM171.69 9.32003L170.813 8.83812C170.411 9.5695 169.72 10.4284 168.693 11.4146L169.386 12.136L170.078 12.8574C171.184 11.7957 172.029 10.7772 172.566 9.80195L171.69 9.32003ZM169.386 12.136L168.678 11.4289L157.094 23.0129L157.802 23.72L158.509 24.4271L170.093 12.8431L169.386 12.136ZM141.418 13.864V14.864H151.146V13.864V12.864H141.418V13.864ZM151.146 13.864H150.146V40.872H151.146H152.146V13.864H151.146ZM151.146 40.872L150.858 39.9142C150.526 40.014 149.963 40.1133 149.126 40.197L149.226 41.192L149.325 42.1871C150.195 42.1001 150.912 41.9861 151.433 41.8299L151.146 40.872ZM149.226 41.192L149.07 40.2043C148.315 40.3234 147.514 40.384 146.666 40.384V41.384V42.384C147.609 42.384 148.515 42.3166 149.382 42.1798L149.226 41.192ZM146.666 41.384V40.384C144.811 40.384 143.747 40.044 143.214 39.5951L142.57 40.36L141.925 41.1249C143.014 42.0414 144.68 42.384 146.666 42.384V41.384ZM142.57 40.36L143.234 39.6126C142.781 39.2102 142.418 38.3909 142.418 36.84H141.418H140.418C140.418 38.6171 140.822 40.1446 141.905 41.1074L142.57 40.36ZM141.418 36.84H142.418V13.864H141.418H140.418V36.84H141.418ZM151.146 26.024V25.024H141.418V26.024V27.024H151.146V26.024ZM141.418 26.024H142.418V2.02403H141.418H140.418V26.024H141.418ZM141.418 2.02403L141.614 3.00461C142.016 2.9242 142.636 2.82041 143.486 2.69297L143.338 1.70403L143.189 0.715097C142.332 0.843655 141.673 0.953201 141.221 1.04345L141.418 2.02403ZM143.338 1.70403L143.479 2.69398C144.333 2.57191 145.139 2.51203 145.898 2.51203V1.51203V0.512032C145.034 0.512032 144.134 0.580151 143.196 0.714083L143.338 1.70403ZM145.898 1.51203V2.51203C147.663 2.51203 148.704 2.82896 149.246 3.25692L149.866 2.47203L150.485 1.68715C149.406 0.835104 147.802 0.512032 145.898 0.512032V1.51203ZM149.866 2.47203L149.266 3.27204C149.741 3.62855 150.146 4.42041 150.146 6.05603H151.146H152.146C152.146 4.19299 151.697 2.59552 150.466 1.67203L149.866 2.47203ZM151.146 6.05603H150.146V26.024H151.146H152.146V6.05603H151.146ZM213.615 32.744L214.481 33.2441L214.484 33.2389L213.615 32.744ZM186.159 39.656L185.691 40.5401L185.696 40.5428L186.159 39.656ZM179.119 32.744L178.244 33.2297L178.247 33.2349L179.119 32.744ZM179.183 10.28L180.049 10.7801L180.052 10.7749L179.183 10.28ZM186.287 3.36803L186.744 4.25738L186.754 4.25213L186.287 3.36803ZM206.447 3.36803L205.979 4.25219L205.989 4.25732L206.447 3.36803ZM213.551 10.28L212.682 10.7749L212.686 10.7821L212.69 10.7892L213.551 10.28ZM189.231 30.952L188.465 31.5952V31.5952L189.231 30.952ZM203.567 30.952L204.332 31.5952V31.5952L203.567 30.952ZM216.239 21.48H215.239C215.239 25.7875 214.39 29.3618 212.746 32.2492L213.615 32.744L214.484 33.2389C216.338 29.9822 217.239 26.0472 217.239 21.48H216.239ZM213.615 32.744L212.749 32.244C211.09 35.1164 208.857 37.2844 206.043 38.7719L206.511 39.656L206.978 40.5401C210.137 38.8703 212.641 36.4303 214.481 33.2441L213.615 32.744ZM206.511 39.656L206.043 38.7719C203.218 40.2655 199.989 41.024 196.335 41.024V42.024V43.024C200.274 43.024 203.83 42.2039 206.978 40.5401L206.511 39.656ZM196.335 42.024V41.024C192.725 41.024 189.494 40.2664 186.621 38.7692L186.159 39.656L185.696 40.5428C188.882 42.203 192.435 43.024 196.335 43.024V42.024ZM186.159 39.656L186.626 38.7719C183.814 37.2856 181.605 35.1206 179.99 32.2532L179.119 32.744L178.247 33.2349C180.045 36.4262 182.53 38.8691 185.691 40.5401L186.159 39.656ZM179.119 32.744L179.993 32.2584C178.387 29.3691 177.559 25.7912 177.559 21.48H176.559H175.559C175.559 26.0435 176.436 29.975 178.244 33.2297L179.119 32.744ZM176.559 21.48H177.559C177.559 17.1719 178.408 13.6217 180.049 10.7801L179.183 10.28L178.317 9.77996C176.459 12.997 175.559 16.9135 175.559 21.48H176.559ZM179.183 10.28L180.052 10.7749C181.71 7.86218 183.939 5.69978 186.744 4.25732L186.287 3.36803L185.829 2.47875C182.661 4.10829 180.154 6.55389 178.314 9.78519L179.183 10.28ZM186.287 3.36803L186.754 4.25213C189.583 2.7569 192.769 2.00003 196.335 2.00003V1.00003V3.43323e-05C192.476 3.43323e-05 188.964 0.821836 185.819 2.48394L186.287 3.36803ZM196.335 1.00003V2.00003C199.945 2.00003 203.152 2.75776 205.979 4.25213L206.447 3.36803L206.914 2.48394C203.768 0.820974 200.234 3.43323e-05 196.335 3.43323e-05V1.00003ZM206.447 3.36803L205.989 4.25732C208.794 5.69978 211.023 7.86218 212.682 10.7749L213.551 10.28L214.42 9.78519C212.579 6.55389 210.072 4.10829 206.904 2.47875L206.447 3.36803ZM213.551 10.28L212.69 10.7892C214.37 13.629 215.239 17.1757 215.239 21.48H216.239H217.239C217.239 16.9097 216.315 12.9898 214.411 9.7709L213.551 10.28ZM206.255 21.48H207.255C207.255 17.2166 206.334 13.8119 204.332 11.4288L203.567 12.072L202.801 12.7152C204.383 14.5988 205.255 17.4661 205.255 21.48H206.255ZM203.567 12.072L204.332 11.4288C202.332 9.04782 199.63 7.87203 196.335 7.87203V8.87203V9.87203C199.098 9.87203 201.217 10.8296 202.801 12.7152L203.567 12.072ZM196.335 8.87203V7.87203C193.114 7.87203 190.459 9.05505 188.465 11.4288L189.231 12.072L189.996 12.7152C191.586 10.8223 193.667 9.87203 196.335 9.87203V8.87203ZM189.231 12.072L188.465 11.4288C186.463 13.8119 185.543 17.2166 185.543 21.48H186.543H187.543C187.543 17.4661 188.414 14.5988 189.996 12.7152L189.231 12.072ZM186.543 21.48H185.543C185.543 25.7831 186.462 29.2106 188.465 31.5952L189.231 30.952L189.996 30.3088C188.415 28.4268 187.543 25.5396 187.543 21.48H186.543ZM189.231 30.952L188.465 31.5952C190.462 33.9727 193.141 35.152 196.399 35.152V34.152V33.152C193.683 33.152 191.583 32.1981 189.996 30.3088L189.231 30.952ZM196.399 34.152V35.152C199.656 35.152 202.335 33.9727 204.332 31.5952L203.567 30.952L202.801 30.3088C201.214 32.1981 199.114 33.152 196.399 33.152V34.152ZM203.567 30.952L204.332 31.5952C206.335 29.2106 207.255 25.7831 207.255 21.48H206.255H205.255C205.255 25.5396 204.382 28.4268 202.801 30.3088L203.567 30.952ZM230.907 40.168L230.448 41.0563L230.457 41.061L230.466 41.0655L230.907 40.168ZM225.211 34.856L224.348 35.3609V35.3609L225.211 34.856ZM223.227 22.696V21.696H222.227V22.696H223.227ZM232.891 22.696H233.891V21.696H232.891V22.696ZM234.875 32.168L235.582 31.4609V31.4609L234.875 32.168ZM244.987 32.168L244.28 31.4609V31.4609L244.987 32.168ZM246.971 22.696V21.696H245.971V22.696H246.971ZM256.699 22.696H257.699V21.696H256.699V22.696ZM254.651 34.856L253.795 34.3391L253.788 34.3512L254.651 34.856ZM248.891 40.168L249.338 41.0625L249.344 41.0594L248.891 40.168ZM232.891 24.616V25.616H233.891V24.616H232.891ZM223.227 24.616H222.227V25.616H223.227V24.616ZM223.227 2.02403L223.031 1.04345L222.227 1.20423V2.02403H223.227ZM225.147 1.70403L225.295 2.69297V2.69297L225.147 1.70403ZM231.675 2.47203L231.055 3.25692V3.25692L231.675 2.47203ZM256.699 24.744V25.744H257.699V24.744H256.699ZM246.971 24.744H245.971V25.744H246.971V24.744ZM246.971 2.02403L246.775 1.04345L245.971 1.20423V2.02403H246.971ZM248.891 1.70403L248.75 0.71406L248.743 0.715097L248.891 1.70403ZM255.419 2.47203L254.799 3.25692L254.809 3.2646L254.819 3.27203L255.419 2.47203ZM239.931 42.024V41.024C236.548 41.024 233.699 40.4259 231.348 39.2706L230.907 40.168L230.466 41.0655C233.15 42.3849 236.316 43.024 239.931 43.024V42.024ZM230.907 40.168L231.366 39.2798C229.049 38.081 227.295 36.4385 226.074 34.3512L225.211 34.856L224.348 35.3609C225.772 37.7962 227.816 39.695 230.448 41.0563L230.907 40.168ZM225.211 34.856L226.074 34.3512C224.854 32.2656 224.227 29.8 224.227 26.92H223.227H222.227C222.227 30.0987 222.922 32.9238 224.348 35.3609L225.211 34.856ZM223.227 26.92H224.227V22.696H223.227H222.227V26.92H223.227ZM223.227 22.696V23.696H232.891V22.696V21.696H223.227V22.696ZM232.891 22.696H231.891V26.664H232.891H233.891V22.696H232.891ZM232.891 26.664H231.891C231.891 29.2047 232.613 31.32 234.168 32.8751L234.875 32.168L235.582 31.4609C234.492 30.3708 233.891 28.8167 233.891 26.664H232.891ZM234.875 32.168L234.168 32.8751C235.697 34.4041 237.646 35.152 239.931 35.152V34.152V33.152C238.121 33.152 236.699 32.5774 235.582 31.4609L234.875 32.168ZM239.931 34.152V35.152C242.217 35.152 244.165 34.4041 245.694 32.8751L244.987 32.168L244.28 31.4609C243.164 32.5774 241.742 33.152 239.931 33.152V34.152ZM244.987 32.168L245.694 32.8751C247.249 31.32 247.971 29.2047 247.971 26.664H246.971H245.971C245.971 28.8167 245.37 30.3708 244.28 31.4609L244.987 32.168ZM246.971 26.664H247.971V22.696H246.971H245.971V26.664H246.971ZM246.971 22.696V23.696H256.699V22.696V21.696H246.971V22.696ZM256.699 22.696H255.699V26.92H256.699H257.699V22.696H256.699ZM256.699 26.92H255.699C255.699 29.7944 255.053 32.2556 253.795 34.3392L254.651 34.856L255.507 35.3729C256.98 32.9338 257.699 30.1043 257.699 26.92H256.699ZM254.651 34.856L253.788 34.3512C252.57 36.4341 250.798 38.0765 248.438 39.2766L248.891 40.168L249.344 41.0594C252.019 39.6996 254.087 37.8007 255.514 35.3609L254.651 34.856ZM248.891 40.168L248.444 39.2736C246.14 40.4256 243.314 41.024 239.931 41.024V42.024V43.024C243.545 43.024 246.693 42.3851 249.338 41.0625L248.891 40.168ZM232.891 24.616V23.616H223.227V24.616V25.616H232.891V24.616ZM223.227 24.616H224.227V2.02403H223.227H222.227V24.616H223.227ZM223.227 2.02403L223.423 3.00461C223.825 2.9242 224.446 2.82041 225.295 2.69297L225.147 1.70403L224.999 0.715097C224.142 0.843655 223.482 0.953201 223.031 1.04345L223.227 2.02403ZM225.147 1.70403L225.295 2.69297C226.1 2.57225 226.904 2.51203 227.707 2.51203V1.51203V0.512032C226.803 0.512032 225.901 0.579813 224.999 0.715097L225.147 1.70403ZM227.707 1.51203V2.51203C229.472 2.51203 230.513 2.82896 231.055 3.25692L231.675 2.47203L232.295 1.68715C231.215 0.835104 229.611 0.512032 227.707 0.512032V1.51203ZM231.675 2.47203L231.055 3.25692C231.5 3.60817 231.891 4.40573 231.891 6.05603H232.891H233.891C233.891 4.20767 233.471 2.6159 232.295 1.68715L231.675 2.47203ZM232.891 6.05603H231.891V24.616H232.891H233.891V6.05603H232.891ZM256.699 24.744V23.744H246.971V24.744V25.744H256.699V24.744ZM246.971 24.744H247.971V2.02403H246.971H245.971V24.744H246.971ZM246.971 2.02403L247.167 3.00461C247.569 2.9242 248.19 2.82041 249.039 2.69297L248.891 1.70403L248.743 0.715097C247.886 0.843655 247.226 0.953201 246.775 1.04345L246.971 2.02403ZM248.891 1.70403L249.032 2.69398C249.887 2.57191 250.693 2.51203 251.451 2.51203V1.51203V0.512032C250.588 0.512032 249.687 0.580151 248.75 0.714083L248.891 1.70403ZM251.451 1.51203V2.51203C253.216 2.51203 254.257 2.82896 254.799 3.25692L255.419 2.47203L256.039 1.68715C254.959 0.835104 253.355 0.512032 251.451 0.512032V1.51203ZM255.419 2.47203L254.819 3.27203C255.294 3.62855 255.699 4.42041 255.699 6.05603H256.699H257.699C257.699 4.19299 257.25 2.59552 256.019 1.67204L255.419 2.47203ZM256.699 6.05603H255.699V24.744H256.699H257.699V6.05603H256.699ZM274.117 9.96003L273.117 9.96816L273.125 10.96H274.117V9.96003ZM274.053 2.08803V1.08803H273.045L273.053 2.09616L274.053 2.08803ZM293.765 2.08803L294.623 1.57354L294.331 1.08803H293.765V2.08803ZM294.469 3.75203L293.515 4.05031L293.517 4.05931L293.52 4.06826L294.469 3.75203ZM293.829 8.93604L293.099 8.25209L293.088 8.26461L293.076 8.27753L293.829 8.93604ZM283.013 2.08803L284.013 2.0799L284.005 1.08803H283.013V2.08803ZM283.077 9.96003V10.96H284.085L284.077 9.9519L283.077 9.96003ZM263.365 9.96003L262.508 10.4745L262.799 10.96H263.365V9.96003ZM262.661 8.36003L261.707 8.65831L261.709 8.66731L261.712 8.67626L262.661 8.36003ZM263.237 3.11203L262.508 2.42809L262.506 2.42972L263.237 3.11203ZM273.605 8.23203V7.23203H272.605V8.23203H273.605ZM283.269 8.23203H284.269V7.23203H283.269V8.23203ZM283.269 40.872L283.486 41.8482L284.269 41.6742V40.872H283.269ZM281.413 41.192L281.561 42.181L281.413 41.192ZM274.757 40.36L274.093 41.1074L274.103 41.1163L274.113 41.1249L274.757 40.36ZM274.117 9.96003L275.117 9.9519L275.053 2.0799L274.053 2.08803L273.053 2.09616L273.117 9.96816L274.117 9.96003ZM274.053 2.08803V3.08803H293.765V2.08803V1.08803H274.053V2.08803ZM293.765 2.08803L292.908 2.60252C293.109 2.93878 293.316 3.4134 293.515 4.05031L294.469 3.75203L295.424 3.45376C295.196 2.72533 294.933 2.09062 294.623 1.57354L293.765 2.08803ZM294.469 3.75203L293.52 4.06826C293.695 4.59327 293.789 5.18887 293.789 5.86403H294.789H295.789C295.789 5.0032 295.669 4.1908 295.418 3.43581L294.469 3.75203ZM294.789 5.86403H293.789C293.789 7.09071 293.5 7.82461 293.099 8.25209L293.829 8.93604L294.559 9.61998C295.438 8.68213 295.789 7.36802 295.789 5.86403H294.789ZM293.829 8.93604L293.076 8.27753C292.703 8.70442 292.167 8.96003 291.333 8.96003V9.96003V10.96C292.632 10.96 293.76 10.533 294.582 9.59454L293.829 8.93604ZM291.333 9.96003V8.96003H274.117V9.96003V10.96H291.333V9.96003ZM283.013 2.08803L282.013 2.09616L282.077 9.96816L283.077 9.96003L284.077 9.9519L284.013 2.0799L283.013 2.08803ZM283.077 9.96003V8.96003H263.365V9.96003V10.96H283.077V9.96003ZM263.365 9.96003L264.223 9.44554C264.015 9.09906 263.808 8.63728 263.61 8.04381L262.661 8.36003L261.712 8.67626C261.941 9.36279 262.203 9.96767 262.508 10.4745L263.365 9.96003ZM262.661 8.36003L263.616 8.06176C263.436 7.48755 263.341 6.84282 263.341 6.12003H262.341H261.341C261.341 7.01858 261.459 7.86719 261.707 8.65831L262.661 8.36003ZM262.341 6.12003H263.341C263.341 4.87152 263.618 4.16904 263.968 3.79435L263.237 3.11203L262.506 2.42972C261.661 3.33502 261.341 4.63788 261.341 6.12003H262.341ZM263.237 3.11203L263.967 3.79597C264.399 3.33517 264.956 3.08803 265.733 3.08803V2.08803V1.08803C264.462 1.08803 263.355 1.52356 262.508 2.42809L263.237 3.11203ZM265.733 2.08803V3.08803H283.013V2.08803V1.08803H265.733V2.08803ZM273.605 8.23203V9.23203H283.269V8.23203V7.23203H273.605V8.23203ZM283.269 8.23203H282.269V40.872H283.269H284.269V8.23203H283.269ZM283.269 40.872L283.052 39.8958C282.705 39.9731 282.115 40.0755 281.265 40.2031L281.413 41.192L281.561 42.181C282.417 42.0526 283.065 41.9417 283.486 41.8482L283.269 40.872ZM281.413 41.192L281.265 40.2031C280.462 40.3235 279.637 40.384 278.789 40.384V41.384V42.384C279.733 42.384 280.657 42.3166 281.561 42.181L281.413 41.192ZM278.789 41.384V40.384C276.984 40.384 275.937 40.0464 275.401 39.5951L274.757 40.36L274.113 41.1249C275.198 42.039 276.839 42.384 278.789 42.384V41.384ZM274.757 40.36L275.421 39.6126C274.969 39.2102 274.605 38.3909 274.605 36.84H273.605H272.605C272.605 38.6171 273.009 40.1446 274.093 41.1074L274.757 40.36ZM273.605 36.84H274.605V8.23203H273.605H272.605V36.84H273.605ZM316.68 32.872L317.316 33.643L317.32 33.6403L316.68 32.872ZM317 27.304L316.335 28.0514L316.357 28.0708L316.38 28.0889L317 27.304ZM313.544 25.512L313.86 24.5633L313.849 24.5598L313.544 25.512ZM310.152 24.424L309.835 25.3728L309.846 25.3763L310.152 24.424ZM304.072 21.864L303.599 22.7452V22.7452L304.072 21.864ZM299.976 18.28L299.14 18.8293L299.147 18.8403L299.976 18.28ZM302.536 4.13603L301.922 3.34668V3.34668L302.536 4.13603ZM320.2 1.70403L319.957 2.67419L319.962 2.67543L320.2 1.70403ZM324.68 3.81603L324.019 4.56675L324.035 4.5807L324.051 4.59397L324.68 3.81603ZM325.64 9.64003L324.8 9.09678V9.09678L325.64 9.64003ZM323.976 11.432L323.429 12.2696L324.009 12.6477L324.567 12.2384L323.976 11.432ZM320.008 9.70403L319.706 10.6576L319.713 10.6598L320.008 9.70403ZM310.024 9.96003L309.484 9.11776L309.477 9.1228L309.469 9.12798L310.024 9.96003ZM309.512 14.696L308.881 15.4721L308.907 15.4935L308.935 15.513L309.512 14.696ZM312.648 16.104L312.959 15.1536L312.946 15.1496L312.648 16.104ZM316.168 17.256L315.857 18.2064L315.865 18.2092L315.873 18.2118L316.168 17.256ZM325.128 21.992L324.443 22.7211V22.7211L325.128 21.992ZM324.104 38.696L324.728 39.4769L324.735 39.4711L324.104 38.696ZM305.096 41.128L305.376 40.168L305.366 40.1653L305.357 40.1628L305.096 41.128ZM300.232 38.76L299.566 39.506L299.573 39.5127L299.581 39.5193L300.232 38.76ZM299.4 32.232L300.168 32.8722V32.8722L299.4 32.232ZM301.576 30.44L302.207 29.6648L301.695 29.2472L301.11 29.5551L301.576 30.44ZM305.864 33L305.453 33.912L305.467 33.9181L305.481 33.9238L305.864 33ZM311.816 34.088V35.088C314.148 35.088 316.062 34.6794 317.316 33.643L316.68 32.872L316.043 32.1011C315.335 32.686 314.006 33.088 311.816 33.088V34.088ZM316.68 32.872L317.32 33.6403C318.532 32.6302 319.216 31.3612 319.216 29.864H318.216H317.216C317.216 30.6709 316.875 31.4072 316.039 32.1038L316.68 32.872ZM318.216 29.864H319.216C319.216 28.503 318.679 27.3559 317.619 26.5191L317 27.304L316.38 28.0889C316.941 28.5322 317.216 29.0918 317.216 29.864H318.216ZM317 27.304L317.664 26.5566C316.753 25.7472 315.458 25.0962 313.86 24.5634L313.544 25.512L313.227 26.4607C314.701 26.9518 315.71 27.4956 316.335 28.0514L317 27.304ZM313.544 25.512L313.849 24.5598L310.457 23.4718L310.152 24.424L309.846 25.3763L313.238 26.4642L313.544 25.512ZM310.152 24.424L310.468 23.4753C308.206 22.7215 306.234 21.8895 304.544 20.9829L304.072 21.864L303.599 22.7452C305.408 23.716 307.489 24.5905 309.835 25.3727L310.152 24.424ZM304.072 21.864L304.544 20.9829C302.918 20.1105 301.683 19.0192 300.804 17.7197L299.976 18.28L299.147 18.8403C300.231 20.4422 301.726 21.7403 303.599 22.7452L304.072 21.864ZM299.976 18.28L300.811 17.7309C299.964 16.4418 299.504 14.7488 299.504 12.584H298.504H297.504C297.504 15.0273 298.024 17.1316 299.14 18.8292L299.976 18.28ZM298.504 12.584H299.504C299.504 9.33694 300.716 6.81796 303.149 4.92538L302.536 4.13603L301.922 3.34668C298.979 5.63544 297.504 8.74846 297.504 12.584H298.504ZM302.536 4.13603L303.149 4.92538C305.603 3.01682 309.091 2.00003 313.736 2.00003V1.00003V3.43323e-05C308.822 3.43323e-05 304.844 1.07391 301.922 3.34668L302.536 4.13603ZM313.736 1.00003V2.00003C316.106 2.00003 318.176 2.22898 319.957 2.67418L320.2 1.70403L320.442 0.733891C318.468 0.240423 316.229 3.43323e-05 313.736 3.43323e-05V1.00003ZM320.2 1.70403L319.962 2.67543C321.783 3.1206 323.111 3.76816 324.019 4.56675L324.68 3.81603L325.34 3.06532C324.114 1.98657 322.456 1.22613 320.437 0.732634L320.2 1.70403ZM324.68 3.81603L324.051 4.59397C324.947 5.31711 325.344 6.14955 325.344 7.14404H326.344H327.344C327.344 5.49319 326.631 4.10696 325.308 3.03809L324.68 3.81603ZM326.344 7.14404H325.344C325.344 7.90731 325.156 8.54728 324.8 9.09678L325.64 9.64003L326.479 10.1833C327.062 9.28212 327.344 8.25809 327.344 7.14404H326.344ZM325.64 9.64003L324.8 9.09678C324.391 9.7291 323.918 10.2343 323.384 10.6256L323.976 11.432L324.567 12.2384C325.313 11.6911 325.95 11.0016 326.479 10.1833L325.64 9.64003ZM323.976 11.432L324.522 10.5944C323.434 9.88523 322.016 9.27574 320.302 8.74825L320.008 9.70403L319.713 10.6598C321.327 11.1563 322.554 11.6988 323.429 12.2696L323.976 11.432ZM320.008 9.70403L320.309 8.75045C318.578 8.204 316.705 7.93604 314.696 7.93604V8.93604V9.93604C316.526 9.93604 318.194 10.1801 319.706 10.6576L320.008 9.70403ZM314.696 8.93604V7.93604C312.563 7.93604 310.783 8.28662 309.484 9.11776L310.024 9.96003L310.563 10.8023C311.397 10.2681 312.732 9.93604 314.696 9.93604V8.93604ZM310.024 9.96003L309.469 9.12798C308.216 9.96294 307.488 11.1273 307.488 12.584H308.488H309.488C309.488 11.9074 309.783 11.3225 310.578 10.7921L310.024 9.96003ZM308.488 12.584H307.488C307.488 13.7491 307.973 14.7344 308.881 15.4721L309.512 14.696L310.142 13.9199C309.685 13.5484 309.488 13.1257 309.488 12.584H308.488ZM309.512 14.696L308.935 15.513C309.781 16.1103 310.937 16.6173 312.349 17.0585L312.648 16.104L312.946 15.1496C311.627 14.7374 310.693 14.3057 310.088 13.8791L309.512 14.696ZM312.648 16.104L312.336 17.0544L315.857 18.2064L316.168 17.256L316.479 16.3056L312.959 15.1536L312.648 16.104ZM316.168 17.256L315.873 18.2118C319.667 19.3791 322.5 20.8969 324.443 22.7211L325.128 21.992L325.812 21.263C323.574 19.1618 320.433 17.5223 316.462 16.3003L316.168 17.256ZM325.128 21.992L324.443 22.7211C326.3 24.464 327.264 26.8278 327.264 29.928H328.264H329.264C329.264 26.3723 328.137 23.4454 325.812 21.263L325.128 21.992ZM328.264 29.928H327.264C327.264 33.2121 326.012 35.8499 323.472 37.921L324.104 38.696L324.735 39.4711C327.742 37.0195 329.264 33.812 329.264 29.928H328.264ZM324.104 38.696L323.479 37.9152C320.95 39.9382 317.197 41.024 312.072 41.024V42.024V43.024C317.442 43.024 321.71 41.8912 324.728 39.4769L324.104 38.696ZM312.072 42.024V41.024C309.544 41.024 307.315 40.7338 305.376 40.168L305.096 41.128L304.816 42.088C306.972 42.717 309.394 43.024 312.072 43.024V42.024ZM305.096 41.128L305.357 40.1628C303.405 39.6342 301.932 38.9005 300.882 38.0008L300.232 38.76L299.581 39.5193C300.92 40.6676 302.69 41.5126 304.834 42.0933L305.096 41.128ZM300.232 38.76L300.898 38.0141C299.883 37.1082 299.44 36.1305 299.44 35.048H298.44H297.44C297.44 36.7816 298.191 38.2785 299.566 39.506L300.232 38.76ZM298.44 35.048H299.44C299.44 34.1453 299.694 33.4405 300.168 32.8722L299.4 32.232L298.631 31.5919C297.825 32.5595 297.44 33.7321 297.44 35.048H298.44ZM299.4 32.232L300.168 32.8722C300.732 32.1956 301.357 31.6853 302.041 31.325L301.576 30.44L301.11 29.5551C300.173 30.0481 299.347 30.7325 298.631 31.5919L299.4 32.232ZM301.576 30.44L300.944 31.2153C302.178 32.221 303.687 33.117 305.453 33.912L305.864 33L306.274 32.0881C304.627 31.3471 303.277 30.5364 302.207 29.6648L301.576 30.44ZM305.864 33L305.481 33.9238C307.37 34.7073 309.488 35.088 311.816 35.088V34.088V33.088C309.706 33.088 307.855 32.7434 306.247 32.0763L305.864 33Z" fill="url(#paint0_linear_65_309)" fill-opacity="0.5" mask="url(#path-1-outside-1_65_309)"/>
<defs>
<linearGradient id="paint0_linear_65_309" x1="170.32" y1="-25.564" x2="172.95" y2="274.943" gradientUnits="userSpaceOnUse">
<stop stop-color="#242424"/>
<stop offset="0.225962" stop-color="white"/>
</linearGradient>
</defs>
</svg>
